# xmcd CD database file
#
# Track frame offsets:
#	182
#	13320
#	28327
#	42582
#	57295
#	69460
#	83845
#	99322
#	112737
#	127655
#	140007
#	152517
#	165357
#	179132
#	192950
#	207425
#	220362
#	232880
#	247857
#	261885
#	272805
#	284890
#
# Disc length: 3947 seconds
#
# Revision: 0
# Processed by: cddbd v1.5.1PL0 Copyright (c) Steve Scherf et al.
# Submitted via: CDex 1.51
#
DISCID=430f6916
DTITLE=Carmichael, Hoagy - L'Art Vocal Vol. 18
DYEAR=1900
DGENRE=Jazz
TTITLE0=Stardust (original instumental version)
TTITLE1=So Tired
TTITLE2=Harvey
TTITLE3=Rockin' Chair
TTITLE4=High and Dry
TTITLE5=Georgia (On My Mind)
TTITLE6=One Night in Havana
TTITLE7=Bessie Couldn't Help It
TTITLE8=Lazy River
TTITLE9=Jewish Boy Blues
TTITLE10=Come Easy, Go Easy, Love
TTITLE11=Sing It Now Way Down Low
TTITLE12=Lazy Bones
TTITLE13=Judy
TTITLE14=Two Sleepy People
TTITLE15=Hong Kong Blues
TTITLE16=Riverboat Shuffle
TTITLE17=New Orleans
TTITLE18=Little Old Lady
TTITLE19=Mr. Music Master
TTITLE20=Old Man Harlem
TTITLE21=Stardust (vocal version)
EXTD=
EXTT0=
EXTT1=
EXTT2=
EXTT3=
EXTT4=
EXTT5=
EXTT6=
EXTT7=
EXTT8=
EXTT9=
EXTT10=
EXTT11=
EXTT12=
EXTT13=
EXTT14=
EXTT15=
EXTT16=
EXTT17=
EXTT18=
EXTT19=
EXTT20=
EXTT21=
PLAYORDER=
